<?xml version="1.0" encoding="UTF-8" standalone="no"?>
<svg
   width="966.97388mm"
   height="201.22647mm"
   version="1.1"
   style="clip-rule:evenodd;fill-rule:evenodd;image-rendering:optimizeQuality;shape-rendering:geometricPrecision;text-rendering:geometricPrecision"
   viewBox="15120.712 37357.053 72860.928 3400.6502"
   id="svg6"
   sodipodi:docname="Sem título(3).svg"
   xmlns:inkscape="http://www.inkscape.org/namespaces/inkscape"
   xmlns:sodipodi="http://sodipodi.sourceforge.net/DTD/sodipodi-0.dtd"
   xmlns="http://www.w3.org/2000/svg"
   xmlns:svg="http://www.w3.org/2000/svg">
  <sodipodi:namedview
     id="namedview6"
     pagecolor="#ffffff"
     bordercolor="#000000"
     borderopacity="0.25"
     inkscape:showpageshadow="2"
     inkscape:pageopacity="0.0"
     inkscape:pagecheckerboard="0"
     inkscape:deskcolor="#d1d1d1"
     inkscape:document-units="mm">
    <inkscape:page
       x="0"
       y="0"
       width="72860.93"
       height="3400.6501"
       id="page2"
       margin="0"
       bleed="0" />
  </sodipodi:namedview>
  <defs
     id="defs5">
    <style
       type="text/css"
       id="style1">
   
    .fil1 {fill:#113152;fill-rule:nonzero}
    .fil0 {fill:url(#id0)}
   
  </style>
    <linearGradient
       id="id0"
       gradientUnits="userSpaceOnUse"
       x1="19589.859"
       y1="49469.27"
       x2="35527.879"
       y2="48699.879">
      <stop
         offset="0"
         style="stop-opacity:1; stop-color:#0D2E51"
         id="stop1" />
      <stop
         offset="0.1529"
         style="stop-opacity:1; stop-color:#1E3957"
         id="stop2" />
      <stop
         offset="0.3216"
         style="stop-opacity:1; stop-color:#30455D"
         id="stop3" />
      <stop
         offset="0.3608"
         style="stop-opacity:1; stop-color:#44505D"
         id="stop4" />
      <stop
         offset="1"
         style="stop-opacity:1; stop-color:#5A5C5E"
         id="stop5" />
    </linearGradient>
  </defs>
  <g
     id="Camada_x0020_1"
     transform="translate(-1426.3755,-6899.172)"
     style="stroke-width:0.979543;stroke-dasharray:none">
    <path
       class="fil0"
       d="m 22812.36,46074.48 1661.78,1258.36 c 160.1,-28.74 555.14,-393.05 724.44,-508.9 741.03,-507 1409.43,-1067.07 2153.27,-1581.71 l 1421.27,-1064.73 c 212.55,-155.95 1243.58,-1018.5 1487.12,-1048.49 l 2.85,5565.25 c -483.97,451.52 -2544.03,1893.65 -2686.32,2041.26 -150.21,155.82 -78.95,632.27 -78.78,885.58 0.39,633.56 -14.69,1280.57 3.63,1912.41 236.45,-24.76 558.16,-361.34 740.3,-484.1 62.09,-41.87 132.66,-74.84 184.21,-112.01 59.28,-42.78 97.4,-83.27 185.42,-145.1 79.68,-55.96 93.12,-74.58 161.05,-127.65 l 3398.62,-2527.13 c 469.15,-307.41 309.96,-319.77 305.11,-1553.02 v -8670.8 c -0.21,-249.64 66.64,-1049 -36.42,-1196.62 -89.79,-96.96 -298.03,133.92 -481.12,268.69 -196.74,144.85 -285.37,239.74 -469.31,366.87 -630.72,436.05 -1342.89,1003.97 -1980.34,1462.14 l -3931.47,2947.11 c -300.01,244.71 -719.3,495.37 -969.71,715.88 -217.13,69.66 -162.13,85.91 -301.82,-41.22 l -3747.43,-2765.88 c -293.88,-216.05 -673.06,-511.15 -966.69,-752.35 -669.39,-549.82 -1709.52,-1245.66 -2480.59,-1872.48 -123.32,-100.25 -364.92,-336.23 -538.16,-343.67 -57.9,1185.55 -1.47,3576.1 -3.06,4906.66 -1.99,1646.19 -0.57,3292.85 1.3,4939.07 0.42,367.26 -28.27,857.18 2.41,1209.23 20.53,235.11 405.72,488.68 608.55,628.64 l 3530.72,2653.79 c 284.12,206.81 534.09,479.9 766.66,498.14 22.16,-611.49 8.81,-1265.67 2.33,-1880 -13.22,-1252.36 210.05,-580.85 -1702.92,-2107.85 -179.5,-143.3 -946.98,-723.49 -1089.7,-782.43 l -13.06,-5683.39 c 226.82,-34.44 375.99,179.33 538.64,296 184.42,132.23 330.13,229.49 509.42,369.24 344.73,268.69 695.83,538.85 1024.97,770.03 l 1517.63,1149.85 c 88.37,64.56 -108.79,-85.01 -15.72,-11.9 146.71,115.33 398.91,329.64 560.92,417.23 z"
       id="path5"
       style="fill:url(#id0);stroke-width:0.979543;stroke-dasharray:none" />
    <path
       class="fil1"
       d="m 47567.54,41834.9 v 10049.44 h -2438.56 v -5128.05 l -2409.01,5128.05 h -2704.29 l -2409.01,-5128.05 v 5128.05 h -2423.8 V 41834.9 h 2689.52 l 3502.81,7374.69 3488.05,-7374.69 z m 2232,0 h 7699.47 v 2246.65 h -5275.69 v 1728.57 h 4403.34 v 2099.01 h -4403.34 v 1728.59 h 5275.69 v 2246.62 h -7699.47 z m 18650.8,0 v 2246.65 h -3561.88 v 7802.79 H 62435.15 V 44081.55 H 58873.28 V 41834.9 Z m 10641.05,0 v 2246.65 h -3561.88 v 7802.79 H 73076.2 V 44081.55 H 69514.35 V 41834.9 Z m 7730.45,10049.44 -650.92,-1566.17 h -4847.56 l -664.32,1566.17 H 78086.29 L 82387.65,41834.9 h 2704.27 l 4316.1,10049.44 z m -4655.63,-3547.09 h 3161.9 L 83761.92,44583.47 Z M 35985.93,40860.93 c -203.34,0 -382.18,-45.97 -536.84,-138.24 -155,-92.92 -275.79,-232.51 -362.36,-418.71 -86.9,-185.88 -130.2,-414.71 -130.2,-685.81 0,-271.09 46.31,-499.58 139.59,-685.79 92.93,-185.9 221.79,-325.13 386.52,-417.39 165.42,-92.93 355.98,-139.59 571.72,-139.59 231.5,0 421.76,41.62 570.39,124.84 148.27,83.19 253.64,207.68 315.37,373.07 l -185.21,108.71 h -41.58 c -62.74,-125.14 -147.64,-215.06 -255.01,-269.73 -106.7,-54.37 -241.24,-81.89 -403.96,-81.89 -529.78,0 -794.5,329.49 -794.5,987.77 0,342.9 66.42,592.87 199.96,750.23 133.21,157.68 319.76,236.19 559.66,236.19 220.76,0 385.83,-49.98 495.22,-150.32 110.05,-99.97 165.06,-258.01 165.06,-473.72 v -213.41 h -687.15 V 39539 h 962.26 v 1287.05 h -263.02 v -323.45 l -33.54,-8.07 c -64.42,124.51 -154.02,216.76 -268.43,276.47 -113.73,59.74 -248.27,89.93 -403.95,89.93 z m 4311.67,-34.88 V 38410.3 h 877.7 c 161.73,0 297.94,26.85 408,80.53 110.06,53.7 192.25,129.52 246.96,226.81 55.33,97.63 83.19,213.06 83.19,346.26 0,149.66 -37.56,273.11 -112.73,370.4 -74.48,97.64 -191.25,170.46 -350.29,218.77 v 34.89 c 78.52,30.53 142.61,78.84 191.94,144.94 48.95,66.44 94.61,165.09 136.88,296.6 l 222.78,696.55 h -291.22 l -241.58,-738.16 c -28.85,-86.56 -61.75,-154.65 -99.32,-203.97 -37.58,-50 -85.21,-86.25 -142.25,-108.72 -57.37,-22.16 -129.85,-33.55 -217.43,-33.55 h -428.1 v 1084.4 z m 871.01,-1324.64 c 150.3,0 262.04,-34.89 335.51,-104.67 74.16,-70.46 111.38,-177.5 111.38,-320.76 0,-142.94 -37.22,-249.62 -111.38,-319.41 -73.47,-69.81 -185.21,-104.7 -335.51,-104.7 h -586.48 v 849.54 z m 4952.75,1359.52 c -296.27,0 -520.4,-75.14 -672.38,-225.47 -152.34,-150.31 -228.16,-373.09 -228.16,-668.36 V 38410.3 H 45504 v 1552.79 c 0,212.04 50.33,371.08 151.63,476.43 102.03,105.7 257.02,158.35 465.73,158.35 412.35,0 618.7,-211.36 618.7,-634.78 V 38410.3 h 281.82 v 1556.8 c 0,295.27 -76.17,518.05 -228.13,668.36 -152.35,150.33 -376.47,225.47 -672.39,225.47 z m 5179.99,-2450.63 c 166.41,0 309.02,30.22 428.13,89.94 118.76,59.03 209.35,144.26 271.1,254.99 62.41,111.05 93.94,241.24 93.94,390.53 0,150.32 -31.53,280.49 -93.94,390.53 -61.75,110.06 -152.34,195.3 -271.1,255.01 -119.11,60.06 -261.72,89.93 -428.13,89.93 h -579.76 v 944.82 h -284.53 V 38410.3 Z m -8.03,1228.02 c 335.51,0 503.26,-164.08 503.26,-492.56 0,-329.15 -167.75,-493.89 -503.26,-493.89 h -571.73 v 986.45 z m 5011.98,1222.61 c -209.37,0 -395.58,-44.95 -558.28,-135.56 -163.09,-90.24 -291.26,-228.15 -385.19,-413.34 -93.28,-185.9 -139.58,-417.38 -139.58,-693.86 0,-276.47 46.3,-507.29 139.58,-692.51 93.93,-185.87 222.1,-324.12 385.19,-414.69 162.7,-90.25 348.91,-135.57 558.28,-135.57 209.36,0 395.26,45.32 558.32,135.57 162.7,90.57 291.22,228.82 385.17,414.69 93.94,185.22 140.9,416.04 140.9,692.51 0,276.48 -46.96,507.96 -140.9,693.86 -93.95,185.19 -222.47,323.1 -385.17,413.34 -163.06,90.61 -348.96,135.56 -558.32,135.56 z m 0,-263.06 c 251.31,0 444.22,-78.14 578.45,-234.85 134.21,-157.36 201.3,-405.63 201.3,-744.85 0,-338.85 -67.09,-586.81 -201.3,-743.51 -134.23,-157.37 -327.14,-236.2 -578.45,-236.2 -520.03,0 -779.74,326.79 -779.74,979.71 0,653.25 259.71,979.7 779.74,979.7 z"
       id="path6"
       style="stroke-width:0.979543;stroke-dasharray:none" />
  </g>
</svg>
